<svg width="200" height="233" viewBox="0 0 200 233" fill="none" xmlns="http://www.w3.org/2000/svg">
<g id="Vector">
<path d="M83.0633 67.2328L40.5724 91.8354V167.605L61.2212 155.652V103.788L83.0633 91.1385V67.2328Z" fill="#7700FF"/>
<path d="M132.623 115.37L153.272 127.323V76.8529L86.749 38.328V62.2413L132.623 88.8057V115.37Z" fill="#7700FF"/>
<path d="M174.518 146.866L153.869 134.913L109.09 160.848L86.1523 147.563L65.5036 159.523L109.09 184.754L174.518 146.866Z" fill="#7700FF" fill-opacity="0.9"/>
<path d="M199.245 57.4768L180.22 68.4525L100.004 21.9969V0L199.245 57.4768Z" fill="#7700FF" fill-opacity="0.3"/>
<path d="M200 78.6858V149.282L181.013 138.291V89.654L200 78.6858Z" fill="#7700FF" fill-opacity="0.4"/>
<path d="M0.234128 57.7722L19.2138 68.7858L18.9948 68.9145V161.561L0 172.559V57.9085L0.234128 57.7722Z" fill="#7700FF" fill-opacity="0.1"/>
<path d="M77.8974 12.8012V34.798L37.8989 57.9615L18.9344 46.9478L77.8974 12.8012Z" fill="#7700FF" fill-opacity="0.2"/>
<path d="M98.5537 232.414L98.954 210.432L99.1655 210.554L179.955 165.621L198.761 176.952L98.7878 232.558L98.5537 232.414Z" fill="#7700FF" fill-opacity="0.5"/>
<path d="M21.6759 186.11L40.8595 175.437L80.4577 199.29L80.0423 221.264L21.6759 186.11Z" fill="#7700FF" fill-opacity="0.6"/>
</g>
</svg>
